<svg xmlns="http://www.w3.org/2000/svg" version="1.1" xmlns:xlink="http://www.w3.org/1999/xlink" xmlns:svgjs="http://svgjs.dev/svgjs" width="1440" height="560" preserveAspectRatio="none" viewBox="0 0 1440 560"><g mask="url(&quot;#SvgjsMask1086&quot;)" fill="none"><g mask="url(&quot;#SvgjsMask1087&quot;)"><path d="M154 330L418 66L418 22" stroke-width="7.33" stroke="rgba(103, 177, 238, 1)"></path><path d="M143 330 a11 11 0 1 0 22 0 a11 11 0 1 0 -22 0zM407 22 a11 11 0 1 0 22 0 a11 11 0 1 0 -22 0z" fill="rgba(103, 177, 238, 1)"></path><path d="M462 374L286 550L22 550" stroke-width="7.33" stroke="rgba(103, 177, 238, 1)"></path><path d="M451 374 a11 11 0 1 0 22 0 a11 11 0 1 0 -22 0zM11 550 a11 11 0 1 0 22 0 a11 11 0 1 0 -22 0z" fill="rgba(103, 177, 238, 1)"></path><path d="M594 418L814 418L902 506L902 550" stroke-width="7.33" stroke="rgba(103, 177, 238, 1)"></path><path d="M583 418 a11 11 0 1 0 22 0 a11 11 0 1 0 -22 0zM891 550 a11 11 0 1 0 22 0 a11 11 0 1 0 -22 0z" fill="rgba(103, 177, 238, 1)"></path><path d="M506 550L374 550" stroke-width="7.33" stroke="rgba(103, 177, 238, 1)"></path><path d="M495 550 a11 11 0 1 0 22 0 a11 11 0 1 0 -22 0zM363 550 a11 11 0 1 0 22 0 a11 11 0 1 0 -22 0z" fill="rgba(103, 177, 238, 1)"></path><path d="M550 550L462 462L462 418L638 242L638 110L550 22L462 22" stroke-width="7.33" stroke="rgba(103, 177, 238, 1)"></path><path d="M539 550 a11 11 0 1 0 22 0 a11 11 0 1 0 -22 0zM451 22 a11 11 0 1 0 22 0 a11 11 0 1 0 -22 0z" fill="rgba(103, 177, 238, 1)"></path><path d="M990 110L902 198L682 198" stroke-width="7.33" stroke="rgba(103, 177, 238, 1)"></path><path d="M979 110 a11 11 0 1 0 22 0 a11 11 0 1 0 -22 0zM671 198 a11 11 0 1 0 22 0 a11 11 0 1 0 -22 0z" fill="rgba(103, 177, 238, 1)"></path><path d="M682 462L506 462" stroke-width="7.33" stroke="rgba(103, 177, 238, 1)"></path><path d="M671 462 a11 11 0 1 0 22 0 a11 11 0 1 0 -22 0zM495 462 a11 11 0 1 0 22 0 a11 11 0 1 0 -22 0z" fill="rgba(103, 177, 238, 1)"></path><path d="M1430 198L1254 374L682 374L638 330L594 330" stroke-width="7.33" stroke="rgba(103, 177, 238, 1)"></path><path d="M1419 198 a11 11 0 1 0 22 0 a11 11 0 1 0 -22 0zM583 330 a11 11 0 1 0 22 0 a11 11 0 1 0 -22 0z" fill="rgba(103, 177, 238, 1)"></path><path d="M506 198L418 286L242 286L22 506" stroke-width="7.33" stroke="rgba(103, 177, 238, 1)"></path><path d="M495 198 a11 11 0 1 0 22 0 a11 11 0 1 0 -22 0zM11 506 a11 11 0 1 0 22 0 a11 11 0 1 0 -22 0z" fill="rgba(103, 177, 238, 1)"></path><path d="M462 154L462 198L418 242L286 242" stroke-width="7.33" stroke="rgba(103, 177, 238, 1)"></path><path d="M451 154 a11 11 0 1 0 22 0 a11 11 0 1 0 -22 0zM275 242 a11 11 0 1 0 22 0 a11 11 0 1 0 -22 0z" fill="rgba(103, 177, 238, 1)"></path><path d="M1342 198L1210 330L1122 330L990 198L990 154L1122 22L1430 22" stroke-width="7.33" stroke="rgba(103, 177, 238, 1)"></path><path d="M1331 198 a11 11 0 1 0 22 0 a11 11 0 1 0 -22 0zM1419 22 a11 11 0 1 0 22 0 a11 11 0 1 0 -22 0z" fill="rgba(103, 177, 238, 1)"></path><path d="M726 22L1078 22" stroke-width="7.33" stroke="rgba(103, 177, 238, 1)"></path><path d="M715 22 a11 11 0 1 0 22 0 a11 11 0 1 0 -22 0zM1067 22 a11 11 0 1 0 22 0 a11 11 0 1 0 -22 0z" fill="rgba(103, 177, 238, 1)"></path><path d="M1210 506L1034 506L946 418L858 418" stroke-width="7.33" stroke="rgba(103, 177, 238, 1)"></path><path d="M1199 506 a11 11 0 1 0 22 0 a11 11 0 1 0 -22 0zM847 418 a11 11 0 1 0 22 0 a11 11 0 1 0 -22 0z" fill="rgba(103, 177, 238, 1)"></path><path d="M286 154L22 154" stroke-width="7.33" stroke="rgba(103, 177, 238, 1)"></path><path d="M275 154 a11 11 0 1 0 22 0 a11 11 0 1 0 -22 0zM11 154 a11 11 0 1 0 22 0 a11 11 0 1 0 -22 0z" fill="rgba(103, 177, 238, 1)"></path><path d="M1034 154L1078 154L1122 110L1430 110" stroke-width="7.33" stroke="rgba(103, 177, 238, 1)"></path><path d="M1023 154 a11 11 0 1 0 22 0 a11 11 0 1 0 -22 0zM1419 110 a11 11 0 1 0 22 0 a11 11 0 1 0 -22 0z" fill="rgba(103, 177, 238, 1)"></path><path d="M418 154L418 110L462 66L506 66" stroke-width="7.33" stroke="rgba(103, 177, 238, 1)"></path><path d="M407 154 a11 11 0 1 0 22 0 a11 11 0 1 0 -22 0zM495 66 a11 11 0 1 0 22 0 a11 11 0 1 0 -22 0z" fill="rgba(103, 177, 238, 1)"></path><path d="M946 198L1078 330" stroke-width="7.33" stroke="rgba(103, 177, 238, 1)"></path><path d="M935 198 a11 11 0 1 0 22 0 a11 11 0 1 0 -22 0zM1067 330 a11 11 0 1 0 22 0 a11 11 0 1 0 -22 0z" fill="rgba(103, 177, 238, 1)"></path><path d="M66 198L242 198" stroke-width="7.33" stroke="rgba(103, 177, 238, 1)"></path><path d="M55 198 a11 11 0 1 0 22 0 a11 11 0 1 0 -22 0zM231 198 a11 11 0 1 0 22 0 a11 11 0 1 0 -22 0z" fill="rgba(103, 177, 238, 1)"></path><path d="M66 330L154 242L198 242" stroke-width="7.33" stroke="rgba(103, 177, 238, 1)"></path><path d="M55 330 a11 11 0 1 0 22 0 a11 11 0 1 0 -22 0zM187 242 a11 11 0 1 0 22 0 a11 11 0 1 0 -22 0z" fill="rgba(103, 177, 238, 1)"></path><path d="M726 154L902 154L990 66L1034 66" stroke-width="7.33" stroke="rgba(103, 177, 238, 1)"></path><path d="M715 154 a11 11 0 1 0 22 0 a11 11 0 1 0 -22 0zM1023 66 a11 11 0 1 0 22 0 a11 11 0 1 0 -22 0z" fill="rgba(103, 177, 238, 1)"></path><path d="M198 22L110 110L22 110" stroke-width="7.33" stroke="rgba(103, 177, 238, 1)"></path><path d="M187 22 a11 11 0 1 0 22 0 a11 11 0 1 0 -22 0zM11 110 a11 11 0 1 0 22 0 a11 11 0 1 0 -22 0z" fill="rgba(103, 177, 238, 1)"></path><path d="M22 374L110 374" stroke-width="7.33" stroke="rgba(103, 177, 238, 1)"></path><path d="M11 374 a11 11 0 1 0 22 0 a11 11 0 1 0 -22 0zM99 374 a11 11 0 1 0 22 0 a11 11 0 1 0 -22 0z" fill="rgba(103, 177, 238, 1)"></path><path d="M946 550L946 462" stroke-width="7.33" stroke="rgba(103, 177, 238, 1)"></path><path d="M935 550 a11 11 0 1 0 22 0 a11 11 0 1 0 -22 0zM935 462 a11 11 0 1 0 22 0 a11 11 0 1 0 -22 0z" fill="rgba(103, 177, 238, 1)"></path><path d="M814 110L858 66L946 66" stroke-width="7.33" stroke="rgba(103, 177, 238, 1)"></path><path d="M803 110 a11 11 0 1 0 22 0 a11 11 0 1 0 -22 0zM935 66 a11 11 0 1 0 22 0 a11 11 0 1 0 -22 0z" fill="rgba(103, 177, 238, 1)"></path><path d="M1122 286L1210 286L1342 154L1430 154" stroke-width="7.33" stroke="rgba(103, 177, 238, 1)"></path><path d="M1111 286 a11 11 0 1 0 22 0 a11 11 0 1 0 -22 0zM1419 154 a11 11 0 1 0 22 0 a11 11 0 1 0 -22 0z" fill="rgba(103, 177, 238, 1)"></path><path d="M330 374L374 330L506 330L594 242L594 198" stroke-width="7.33" stroke="rgba(103, 177, 238, 1)"></path><path d="M319 374 a11 11 0 1 0 22 0 a11 11 0 1 0 -22 0zM583 198 a11 11 0 1 0 22 0 a11 11 0 1 0 -22 0z" fill="rgba(103, 177, 238, 1)"></path><path d="M506 286L550 242L550 198" stroke-width="7.33" stroke="rgba(103, 177, 238, 1)"></path><path d="M495 286 a11 11 0 1 0 22 0 a11 11 0 1 0 -22 0zM539 198 a11 11 0 1 0 22 0 a11 11 0 1 0 -22 0z" fill="rgba(103, 177, 238, 1)"></path><path d="M726 66L638 66L594 22" stroke-width="7.33" stroke="rgba(103, 177, 238, 1)"></path><path d="M715 66 a11 11 0 1 0 22 0 a11 11 0 1 0 -22 0zM583 22 a11 11 0 1 0 22 0 a11 11 0 1 0 -22 0z" fill="rgba(103, 177, 238, 1)"></path><path d="M814 242L682 242L638 286" stroke-width="7.33" stroke="rgba(103, 177, 238, 1)"></path><path d="M803 242 a11 11 0 1 0 22 0 a11 11 0 1 0 -22 0zM627 286 a11 11 0 1 0 22 0 a11 11 0 1 0 -22 0z" fill="rgba(103, 177, 238, 1)"></path><path d="M1386 66L1122 66" stroke-width="7.33" stroke="rgba(103, 177, 238, 1)"></path><path d="M1375 66 a11 11 0 1 0 22 0 a11 11 0 1 0 -22 0zM1111 66 a11 11 0 1 0 22 0 a11 11 0 1 0 -22 0z" fill="rgba(103, 177, 238, 1)"></path><path d="M638 550L594 550L550 506" stroke-width="7.33" stroke="rgba(103, 177, 238, 1)"></path><path d="M627 550 a11 11 0 1 0 22 0 a11 11 0 1 0 -22 0zM539 506 a11 11 0 1 0 22 0 a11 11 0 1 0 -22 0z" fill="rgba(103, 177, 238, 1)"></path><path d="M814 506L770 550L682 550L638 506L594 506" stroke-width="7.33" stroke="rgba(103, 177, 238, 1)"></path><path d="M803 506 a11 11 0 1 0 22 0 a11 11 0 1 0 -22 0zM583 506 a11 11 0 1 0 22 0 a11 11 0 1 0 -22 0z" fill="rgba(103, 177, 238, 1)"></path><path d="M242 418L374 418L418 374" stroke-width="7.33" stroke="rgba(103, 177, 238, 1)"></path><path d="M231 418 a11 11 0 1 0 22 0 a11 11 0 1 0 -22 0zM407 374 a11 11 0 1 0 22 0 a11 11 0 1 0 -22 0z" fill="rgba(103, 177, 238, 1)"></path><path d="M286 22L286 110" stroke-width="7.33" stroke="rgba(103, 177, 238, 1)"></path><path d="M275 22 a11 11 0 1 0 22 0 a11 11 0 1 0 -22 0zM275 110 a11 11 0 1 0 22 0 a11 11 0 1 0 -22 0z" fill="rgba(103, 177, 238, 1)"></path><path d="M1386 330L1430 374L1430 550" stroke-width="7.33" stroke="rgba(103, 177, 238, 1)"></path><path d="M1375 330 a11 11 0 1 0 22 0 a11 11 0 1 0 -22 0zM1419 550 a11 11 0 1 0 22 0 a11 11 0 1 0 -22 0z" fill="rgba(103, 177, 238, 1)"></path><path d="M1342 506L1254 418L1210 418" stroke-width="7.33" stroke="rgba(103, 177, 238, 1)"></path><path d="M1331 506 a11 11 0 1 0 22 0 a11 11 0 1 0 -22 0zM1199 418 a11 11 0 1 0 22 0 a11 11 0 1 0 -22 0z" fill="rgba(103, 177, 238, 1)"></path><path d="M946 330L1034 330" stroke-width="7.33" stroke="rgba(103, 177, 238, 1)"></path><path d="M935 330 a11 11 0 1 0 22 0 a11 11 0 1 0 -22 0zM1023 330 a11 11 0 1 0 22 0 a11 11 0 1 0 -22 0z" fill="rgba(103, 177, 238, 1)"></path><path d="M242 506L286 506L330 462" stroke-width="7.33" stroke="rgba(103, 177, 238, 1)"></path><path d="M231 506 a11 11 0 1 0 22 0 a11 11 0 1 0 -22 0zM319 462 a11 11 0 1 0 22 0 a11 11 0 1 0 -22 0z" fill="rgba(103, 177, 238, 1)"></path><path d="M1122 242L1210 154" stroke-width="7.33" stroke="rgba(103, 177, 238, 1)"></path><path d="M1111 242 a11 11 0 1 0 22 0 a11 11 0 1 0 -22 0zM1199 154 a11 11 0 1 0 22 0 a11 11 0 1 0 -22 0z" fill="rgba(103, 177, 238, 1)"></path><path d="M946 242L858 242L770 330L682 330" stroke-width="7.33" stroke="rgba(103, 177, 238, 1)"></path><path d="M935 242 a11 11 0 1 0 22 0 a11 11 0 1 0 -22 0zM671 330 a11 11 0 1 0 22 0 a11 11 0 1 0 -22 0z" fill="rgba(103, 177, 238, 1)"></path><path d="M242 330L66 506" stroke-width="7.33" stroke="rgba(103, 177, 238, 1)"></path><path d="M231 330 a11 11 0 1 0 22 0 a11 11 0 1 0 -22 0zM55 506 a11 11 0 1 0 22 0 a11 11 0 1 0 -22 0z" fill="rgba(103, 177, 238, 1)"></path><path d="M1254 506L1210 550L1034 550" stroke-width="7.33" stroke="rgba(103, 177, 238, 1)"></path><path d="M1243 506 a11 11 0 1 0 22 0 a11 11 0 1 0 -22 0zM1023 550 a11 11 0 1 0 22 0 a11 11 0 1 0 -22 0z" fill="rgba(103, 177, 238, 1)"></path><path d="M330 330L286 374L242 374" stroke-width="7.33" stroke="rgba(103, 177, 238, 1)"></path><path d="M319 330 a11 11 0 1 0 22 0 a11 11 0 1 0 -22 0zM231 374 a11 11 0 1 0 22 0 a11 11 0 1 0 -22 0z" fill="rgba(103, 177, 238, 1)"></path><path d="M594 374L550 418L506 418" stroke-width="7.33" stroke="rgba(103, 177, 238, 1)"></path><path d="M583 374 a11 11 0 1 0 22 0 a11 11 0 1 0 -22 0zM495 418 a11 11 0 1 0 22 0 a11 11 0 1 0 -22 0z" fill="rgba(103, 177, 238, 1)"></path><path d="M66 286L22 242L22 198" stroke-width="7.33" stroke="rgba(103, 177, 238, 1)"></path><path d="M55 286 a11 11 0 1 0 22 0 a11 11 0 1 0 -22 0zM11 198 a11 11 0 1 0 22 0 a11 11 0 1 0 -22 0z" fill="rgba(103, 177, 238, 1)"></path></g></g><defs><mask id="SvgjsMask1086"><rect width="1440" height="560" fill="#ffffff"></rect></mask><mask id="SvgjsMask1087"><rect width="1440" height="560" fill="white"></rect><path d="M148.5 330 a5.5 5.5 0 1 0 11 0 a5.5 5.5 0 1 0 -11 0zM412.5 22 a5.5 5.5 0 1 0 11 0 a5.5 5.5 0 1 0 -11 0z" fill="black"></path><path d="M456.5 374 a5.5 5.5 0 1 0 11 0 a5.5 5.5 0 1 0 -11 0zM16.5 550 a5.5 5.5 0 1 0 11 0 a5.5 5.5 0 1 0 -11 0z" fill="black"></path><path d="M588.5 418 a5.5 5.5 0 1 0 11 0 a5.5 5.5 0 1 0 -11 0zM896.5 550 a5.5 5.5 0 1 0 11 0 a5.5 5.5 0 1 0 -11 0z" fill="black"></path><path d="M500.5 550 a5.5 5.5 0 1 0 11 0 a5.5 5.5 0 1 0 -11 0zM368.5 550 a5.5 5.5 0 1 0 11 0 a5.5 5.5 0 1 0 -11 0z" fill="black"></path><path d="M544.5 550 a5.5 5.5 0 1 0 11 0 a5.5 5.5 0 1 0 -11 0zM456.5 22 a5.5 5.5 0 1 0 11 0 a5.5 5.5 0 1 0 -11 0z" fill="black"></path><path d="M984.5 110 a5.5 5.5 0 1 0 11 0 a5.5 5.5 0 1 0 -11 0zM676.5 198 a5.5 5.5 0 1 0 11 0 a5.5 5.5 0 1 0 -11 0z" fill="black"></path><path d="M676.5 462 a5.5 5.5 0 1 0 11 0 a5.5 5.5 0 1 0 -11 0zM500.5 462 a5.5 5.5 0 1 0 11 0 a5.5 5.5 0 1 0 -11 0z" fill="black"></path><path d="M1424.5 198 a5.5 5.5 0 1 0 11 0 a5.5 5.5 0 1 0 -11 0zM588.5 330 a5.5 5.5 0 1 0 11 0 a5.5 5.5 0 1 0 -11 0z" fill="black"></path><path d="M500.5 198 a5.5 5.5 0 1 0 11 0 a5.5 5.5 0 1 0 -11 0zM16.5 506 a5.5 5.5 0 1 0 11 0 a5.5 5.5 0 1 0 -11 0z" fill="black"></path><path d="M456.5 154 a5.5 5.5 0 1 0 11 0 a5.5 5.5 0 1 0 -11 0zM280.5 242 a5.5 5.5 0 1 0 11 0 a5.5 5.5 0 1 0 -11 0z" fill="black"></path><path d="M1336.5 198 a5.5 5.5 0 1 0 11 0 a5.5 5.5 0 1 0 -11 0zM1424.5 22 a5.5 5.5 0 1 0 11 0 a5.5 5.5 0 1 0 -11 0z" fill="black"></path><path d="M720.5 22 a5.5 5.5 0 1 0 11 0 a5.5 5.5 0 1 0 -11 0zM1072.5 22 a5.5 5.5 0 1 0 11 0 a5.5 5.5 0 1 0 -11 0z" fill="black"></path><path d="M1204.5 506 a5.5 5.5 0 1 0 11 0 a5.5 5.5 0 1 0 -11 0zM852.5 418 a5.5 5.5 0 1 0 11 0 a5.5 5.5 0 1 0 -11 0z" fill="black"></path><path d="M280.5 154 a5.5 5.5 0 1 0 11 0 a5.5 5.5 0 1 0 -11 0zM16.5 154 a5.5 5.5 0 1 0 11 0 a5.5 5.5 0 1 0 -11 0z" fill="black"></path><path d="M1028.5 154 a5.5 5.5 0 1 0 11 0 a5.5 5.5 0 1 0 -11 0zM1424.5 110 a5.5 5.5 0 1 0 11 0 a5.5 5.5 0 1 0 -11 0z" fill="black"></path><path d="M412.5 154 a5.5 5.5 0 1 0 11 0 a5.5 5.5 0 1 0 -11 0zM500.5 66 a5.5 5.5 0 1 0 11 0 a5.5 5.5 0 1 0 -11 0z" fill="black"></path><path d="M940.5 198 a5.5 5.5 0 1 0 11 0 a5.5 5.5 0 1 0 -11 0zM1072.5 330 a5.5 5.5 0 1 0 11 0 a5.5 5.5 0 1 0 -11 0z" fill="black"></path><path d="M60.5 198 a5.5 5.5 0 1 0 11 0 a5.5 5.5 0 1 0 -11 0zM236.5 198 a5.5 5.5 0 1 0 11 0 a5.5 5.5 0 1 0 -11 0z" fill="black"></path><path d="M60.5 330 a5.5 5.5 0 1 0 11 0 a5.5 5.5 0 1 0 -11 0zM192.5 242 a5.5 5.5 0 1 0 11 0 a5.5 5.5 0 1 0 -11 0z" fill="black"></path><path d="M720.5 154 a5.5 5.5 0 1 0 11 0 a5.5 5.5 0 1 0 -11 0zM1028.5 66 a5.5 5.5 0 1 0 11 0 a5.5 5.5 0 1 0 -11 0z" fill="black"></path><path d="M192.5 22 a5.5 5.5 0 1 0 11 0 a5.5 5.5 0 1 0 -11 0zM16.5 110 a5.5 5.5 0 1 0 11 0 a5.5 5.5 0 1 0 -11 0z" fill="black"></path><path d="M16.5 374 a5.5 5.5 0 1 0 11 0 a5.5 5.5 0 1 0 -11 0zM104.5 374 a5.5 5.5 0 1 0 11 0 a5.5 5.5 0 1 0 -11 0z" fill="black"></path><path d="M940.5 550 a5.5 5.5 0 1 0 11 0 a5.5 5.5 0 1 0 -11 0zM940.5 462 a5.5 5.5 0 1 0 11 0 a5.5 5.5 0 1 0 -11 0z" fill="black"></path><path d="M808.5 110 a5.5 5.5 0 1 0 11 0 a5.5 5.5 0 1 0 -11 0zM940.5 66 a5.5 5.5 0 1 0 11 0 a5.5 5.5 0 1 0 -11 0z" fill="black"></path><path d="M1116.5 286 a5.5 5.5 0 1 0 11 0 a5.5 5.5 0 1 0 -11 0zM1424.5 154 a5.5 5.5 0 1 0 11 0 a5.5 5.5 0 1 0 -11 0z" fill="black"></path><path d="M324.5 374 a5.5 5.5 0 1 0 11 0 a5.5 5.5 0 1 0 -11 0zM588.5 198 a5.5 5.5 0 1 0 11 0 a5.5 5.5 0 1 0 -11 0z" fill="black"></path><path d="M500.5 286 a5.5 5.5 0 1 0 11 0 a5.5 5.5 0 1 0 -11 0zM544.5 198 a5.5 5.5 0 1 0 11 0 a5.5 5.5 0 1 0 -11 0z" fill="black"></path><path d="M720.5 66 a5.5 5.5 0 1 0 11 0 a5.5 5.5 0 1 0 -11 0zM588.5 22 a5.5 5.5 0 1 0 11 0 a5.5 5.5 0 1 0 -11 0z" fill="black"></path><path d="M808.5 242 a5.5 5.5 0 1 0 11 0 a5.5 5.5 0 1 0 -11 0zM632.5 286 a5.5 5.5 0 1 0 11 0 a5.5 5.5 0 1 0 -11 0z" fill="black"></path><path d="M1380.5 66 a5.5 5.5 0 1 0 11 0 a5.5 5.5 0 1 0 -11 0zM1116.5 66 a5.5 5.5 0 1 0 11 0 a5.5 5.5 0 1 0 -11 0z" fill="black"></path><path d="M632.5 550 a5.5 5.5 0 1 0 11 0 a5.5 5.5 0 1 0 -11 0zM544.5 506 a5.5 5.5 0 1 0 11 0 a5.5 5.5 0 1 0 -11 0z" fill="black"></path><path d="M808.5 506 a5.5 5.5 0 1 0 11 0 a5.5 5.5 0 1 0 -11 0zM588.5 506 a5.5 5.5 0 1 0 11 0 a5.5 5.5 0 1 0 -11 0z" fill="black"></path><path d="M236.5 418 a5.5 5.5 0 1 0 11 0 a5.5 5.5 0 1 0 -11 0zM412.5 374 a5.5 5.5 0 1 0 11 0 a5.5 5.5 0 1 0 -11 0z" fill="black"></path><path d="M280.5 22 a5.5 5.5 0 1 0 11 0 a5.5 5.5 0 1 0 -11 0zM280.5 110 a5.5 5.5 0 1 0 11 0 a5.5 5.5 0 1 0 -11 0z" fill="black"></path><path d="M1380.5 330 a5.5 5.5 0 1 0 11 0 a5.5 5.5 0 1 0 -11 0zM1424.5 550 a5.5 5.5 0 1 0 11 0 a5.5 5.5 0 1 0 -11 0z" fill="black"></path><path d="M1336.5 506 a5.5 5.5 0 1 0 11 0 a5.5 5.5 0 1 0 -11 0zM1204.5 418 a5.5 5.5 0 1 0 11 0 a5.5 5.5 0 1 0 -11 0z" fill="black"></path><path d="M940.5 330 a5.5 5.5 0 1 0 11 0 a5.5 5.5 0 1 0 -11 0zM1028.5 330 a5.5 5.5 0 1 0 11 0 a5.5 5.5 0 1 0 -11 0z" fill="black"></path><path d="M236.5 506 a5.5 5.5 0 1 0 11 0 a5.5 5.5 0 1 0 -11 0zM324.5 462 a5.5 5.5 0 1 0 11 0 a5.5 5.5 0 1 0 -11 0z" fill="black"></path><path d="M1116.5 242 a5.5 5.5 0 1 0 11 0 a5.5 5.5 0 1 0 -11 0zM1204.5 154 a5.5 5.5 0 1 0 11 0 a5.5 5.5 0 1 0 -11 0z" fill="black"></path><path d="M940.5 242 a5.5 5.5 0 1 0 11 0 a5.5 5.5 0 1 0 -11 0zM676.5 330 a5.5 5.5 0 1 0 11 0 a5.5 5.5 0 1 0 -11 0z" fill="black"></path><path d="M236.5 330 a5.5 5.5 0 1 0 11 0 a5.5 5.5 0 1 0 -11 0zM60.5 506 a5.5 5.5 0 1 0 11 0 a5.5 5.5 0 1 0 -11 0z" fill="black"></path><path d="M1248.5 506 a5.5 5.5 0 1 0 11 0 a5.5 5.5 0 1 0 -11 0zM1028.5 550 a5.5 5.5 0 1 0 11 0 a5.5 5.5 0 1 0 -11 0z" fill="black"></path><path d="M324.5 330 a5.5 5.5 0 1 0 11 0 a5.5 5.5 0 1 0 -11 0zM236.5 374 a5.5 5.5 0 1 0 11 0 a5.5 5.5 0 1 0 -11 0z" fill="black"></path><path d="M588.5 374 a5.5 5.5 0 1 0 11 0 a5.5 5.5 0 1 0 -11 0zM500.5 418 a5.5 5.5 0 1 0 11 0 a5.5 5.5 0 1 0 -11 0z" fill="black"></path><path d="M60.5 286 a5.5 5.5 0 1 0 11 0 a5.5 5.5 0 1 0 -11 0zM16.5 198 a5.5 5.5 0 1 0 11 0 a5.5 5.5 0 1 0 -11 0z" fill="black"></path></mask></defs></svg>