<svg xmlns="http://www.w3.org/2000/svg" version="1.1" xmlns:xlink="http://www.w3.org/1999/xlink" xmlns:svgjs="http://svgjs.dev/svgjs" width="1440" height="2500" preserveAspectRatio="none" viewBox="0 0 1440 2500"><g mask="url(&quot;#SvgjsMask2039&quot;)" fill="none"><rect width="1440" height="2500" x="0" y="0" fill="url(&quot;#SvgjsRadialGradient2040&quot;)"></rect><path d="M663.05 2507.21C835.79 1984.84 617.96 451.31 950.8 325.36 1283.63 199.41 1271.95 1217.52 1526.29 1375.36" stroke="rgba(127, 187, 250, 0.58)" stroke-width="2"></path><path d="M847.5 2577.05C992.75 2207.2 805.46 1120.93 1093.33 1006.76 1381.21 892.59 1404.44 1525.45 1585 1581.76" stroke="rgba(127, 187, 250, 0.58)" stroke-width="2"></path><path d="M797.37 2784.1C1027.31 2333.01 846.83 1011.36 1198.87 799.03 1550.9 586.7 1442.64 1284.96 1600.36 1349.03" stroke="rgba(127, 187, 250, 0.58)" stroke-width="2"></path><path d="M372.08 2633.76C722.88 2098.11 556.12 276.38 1009.44 153.15 1462.77 29.92 1371.22 1094.84 1646.81 1253.15" stroke="rgba(127, 187, 250, 0.58)" stroke-width="2"></path><path d="M650.37 2668C921.19 2290.38 767.73 1018.82 1150.86 877.87 1533.98 736.92 1479.12 1337.61 1651.34 1377.87" stroke="rgba(127, 187, 250, 0.58)" stroke-width="2"></path></g><defs><mask id="SvgjsMask2039"><rect width="1440" height="2500" fill="#ffffff"></rect></mask><radialGradient cx="50%" cy="50%" r="1442.53" gradientUnits="userSpaceOnUse" id="SvgjsRadialGradient2040"><stop stop-color="rgba(234, 243, 255, 1)" offset="0"></stop><stop stop-color="rgba(243, 248, 255, 1)" offset="0.53"></stop><stop stop-color="rgba(181, 213, 255, 1)" offset="1"></stop></radialGradient></defs></svg>