<svg xmlns="http://www.w3.org/2000/svg" version="1.1" xmlns:xlink="http://www.w3.org/1999/xlink" xmlns:svgjs="http://svgjs.dev/svgjs" width="1440" height="560" preserveAspectRatio="none" viewBox="0 0 1440 560"><g mask="url(&quot;#SvgjsMask1005&quot;)" fill="none"><path d="M699.31 586.73C772.55 583.54 746.02 468.77 963.94 460.39 1181.86 452.01 1348.49 230.41 1493.19 225.19" stroke="rgba(127, 187, 250, 0.58)" stroke-width="2"></path><path d="M207.89 666.17C362.13 629.39 411.76 223.39 654.24 215.56 896.73 207.73 877.42 285.56 1100.6 285.56 1323.77 285.56 1434 215.77 1546.95 215.56" stroke="rgba(127, 187, 250, 0.58)" stroke-width="2"></path><path d="M863.77 666.3C979.06 579.05 902.45 154.37 1110.53 143.25 1318.61 132.13 1475.8 281.9 1604.04 283.25" stroke="rgba(127, 187, 250, 0.58)" stroke-width="2"></path><path d="M665.14 634.73C803.46 617.1 855.33 319.29 1112.45 301.58 1369.58 283.87 1439.35 125.67 1559.77 122.38" stroke="rgba(127, 187, 250, 0.58)" stroke-width="2"></path><path d="M517.46 575.05C637.82 543.1 568.51 228.27 857.72 211.26 1146.93 194.25 1361.95 28.09 1538.23 26.46" stroke="rgba(127, 187, 250, 0.58)" stroke-width="2"></path></g><defs><mask id="SvgjsMask1005"><rect width="1440" height="560" fill="#ffffff"></rect></mask></defs></svg>