<svg xmlns="http://www.w3.org/2000/svg" version="1.1" xmlns:xlink="http://www.w3.org/1999/xlink" xmlns:svgjs="http://svgjs.dev/svgjs" width="1440" height="560" preserveAspectRatio="none" viewBox="0 0 1440 560"><g mask="url(&quot;#SvgjsMask1033&quot;)" fill="none"><rect width="1440" height="560" x="0" y="0" fill="rgba(233, 246, 255, 1)"></rect><path d="M0,415.409C76.876,414.4,135.807,353.354,202.459,315.033C273.052,274.447,360.803,253.734,402.677,183.897C445.858,111.882,443.137,21.066,428.276,-61.577C413.747,-142.371,382.637,-224.292,319.78,-277.091C260.177,-327.157,174.496,-318.094,99.236,-337.968C26.537,-357.166,-44.971,-419.1,-115.079,-391.924C-185.68,-364.557,-191.334,-265.918,-238.81,-206.93C-283.842,-150.98,-364.134,-123.933,-385.867,-55.479C-408.531,15.907,-388.489,95.093,-356.145,162.646C-324.138,229.495,-266.344,277.496,-205.903,320.392C-142.985,365.046,-77.146,416.421,0,415.409" fill="#d1ecff"></path><path d="M1440 944.5029999999999C1521.075 942.7370000000001 1616.854 983.571 1677.925 930.2180000000001 1740.351 875.681 1703.071 770.719 1729.033 691.9970000000001 1751.033 625.288 1807.194 575.076 1817.943 505.65999999999997 1831.282 419.52099999999996 1855.444 315.34000000000003 1797.434 250.281 1739.305 185.089 1632.63 208.00099999999998 1545.63 200.257 1474.871 193.95800000000003 1406.271 193.437 1337.025 209.298 1263.908 226.046 1190.851 245.99900000000002 1133.722 294.609 1070.848 348.108 1017.9870000000001 416.222 999.328 496.641 979.876 580.476 993.797 669.17 1028.546 747.905 1063.567 827.258 1117.058 903.335 1195.32 940.73 1270.441 976.624 1356.764 946.316 1440 944.5029999999999" fill="#ffffff"></path></g><defs><mask id="SvgjsMask1033"><rect width="1440" height="560" fill="#ffffff"></rect></mask></defs></svg>