<svg id="visual" viewBox="0 0 960 540" width="960" height="540" xmlns="http://www.w3.org/2000/svg" xmlns:xlink="http://www.w3.org/1999/xlink" version="1.1"><path d="M0 77L120 77L120 71L240 71L240 39L360 39L360 66L480 66L480 77L600 77L600 50L720 50L720 33L840 33L840 71L960 71L960 71L960 0L960 0L840 0L840 0L720 0L720 0L600 0L600 0L480 0L480 0L360 0L360 0L240 0L240 0L120 0L120 0L0 0Z" fill="#daf0ff"></path><path d="M0 158L120 158L120 125L240 125L240 82L360 82L360 104L480 104L480 163L600 163L600 136L720 136L720 98L840 98L840 147L960 147L960 158L960 69L960 69L840 69L840 31L720 31L720 48L600 48L600 75L480 75L480 64L360 64L360 37L240 37L240 69L120 69L120 75L0 75Z" fill="#cde9ff"></path><path d="M0 244L120 244L120 255L240 255L240 287L360 287L360 276L480 276L480 303L600 303L600 249L720 249L720 222L840 222L840 266L960 266L960 287L960 156L960 145L840 145L840 96L720 96L720 134L600 134L600 161L480 161L480 102L360 102L360 80L240 80L240 123L120 123L120 156L0 156Z" fill="#c1e2ff"></path><path d="M0 293L120 293L120 309L240 309L240 325L360 325L360 336L480 336L480 336L600 336L600 309L720 309L720 287L840 287L840 309L960 309L960 336L960 285L960 264L840 264L840 220L720 220L720 247L600 247L600 301L480 301L480 274L360 274L360 285L240 285L240 253L120 253L120 242L0 242Z" fill="#b7daff"></path><path d="M0 395L120 395L120 411L240 411L240 444L360 444L360 449L480 449L480 444L600 444L600 357L720 357L720 384L840 384L840 357L960 357L960 417L960 334L960 307L840 307L840 285L720 285L720 307L600 307L600 334L480 334L480 334L360 334L360 323L240 323L240 307L120 307L120 291L0 291Z" fill="#aed2ff"></path><path d="M0 541L120 541L120 541L240 541L240 541L360 541L360 541L480 541L480 541L600 541L600 541L720 541L720 541L840 541L840 541L960 541L960 541L960 415L960 355L840 355L840 382L720 382L720 355L600 355L600 442L480 442L480 447L360 447L360 442L240 442L240 409L120 409L120 393L0 393Z" fill="#a7caff"></path></svg>